<svg xmlns="http://www.w3.org/2000/svg" xmlns:xlink="http://www.w3.org/1999/xlink" version="1.1" x="0px" y="0px" viewBox="0 0 16 20" style="enable-background:new 0 0 16 16;" xml:space="preserve"><path d="M8,0C3.582,0,0,3.582,0,8s3.582,8,8,8s8-3.582,8-8S12.418,0,8,0z M8,12.98c-2.746,0-4.98-2.234-4.98-4.98S5.254,3.02,8,3.02  S12.98,5.254,12.98,8S10.746,12.98,8,12.98z"/><path d="M8,3.62C5.585,3.62,3.62,5.585,3.62,8S5.585,12.38,8,12.38c2.415,0,4.38-1.965,4.38-4.38S10.415,3.62,8,3.62z M8.3,10.34  H7.7V7.1h0.6V10.34z M8.3,6.38H7.7V5.66h0.6V6.38z"/><text x="0" y="31" fill="#000000" font-size="5px" font-weight="bold" font-family="'Helvetica Neue', Helvetica, Arial-Unicode, Arial, Sans-serif">Created by Astatine Lab</text><text x="0" y="36" fill="#000000" font-size="5px" font-weight="bold" font-family="'Helvetica Neue', Helvetica, Arial-Unicode, Arial, Sans-serif">from the Noun Project</text></svg>